<?xml version="1.0" ?><svg data-name="Layer 1" id="Layer_1" viewBox="0 0 512 512" xmlns="http://www.w3.org/2000/svg"><path d="M486.88,448.09H467.14V199.48A5.15,5.15,0,0,0,464.5,195L265.8,83.44c7.1-1.67,17.88-2.78,27.08,2.23a58.34,58.34,0,0,0,27.52,7.22c11.15,0,20.9-3.74,25.8-11a5.17,5.17,0,0,0,.88-2.88V24.76a5.16,5.16,0,0,0-9.43-2.89c-5.06,7.51-23.57,9.37-39.84.51-19.67-10.73-42.92-.63-43.91-.19a5.15,5.15,0,0,0-3.05,4.71V80.82L47.49,195a5.16,5.16,0,0,0-2.63,4.49V448.09H25.12A5.15,5.15,0,0,0,20,453.25v36.14a5.14,5.14,0,0,0,5.15,5.15H486.88a5.14,5.14,0,0,0,5.15-5.15V453.25A5.15,5.15,0,0,0,486.88,448.09ZM261.15,30.47c6.08-2,20.09-5.4,31.73,1,15,8.17,32.38,9.3,43.89,3.95V77.23c-6.07,6.57-23.52,7.81-39-.61a42.54,42.54,0,0,0-20.53-4.91A62.41,62.41,0,0,0,261.15,74Zm-206,172L256,89.75,456.83,202.49v245.6H426.76V267.76a43,43,0,0,0-42.92-42.92h-.76a43,43,0,0,0-42.92,42.92V448.09H299.29V267.76a43,43,0,0,0-42.91-42.92h-.76a43,43,0,0,0-42.92,42.92V448.09H171.83V267.76a43,43,0,0,0-42.91-42.92h-.76a43,43,0,0,0-42.92,42.92V448.09H55.16Zm361.29,245.6h-66V267.76a32.65,32.65,0,0,1,32.62-32.62h.76a32.65,32.65,0,0,1,32.61,32.62Zm-127.46,0H223V267.76a32.65,32.65,0,0,1,32.62-32.62h.76A32.65,32.65,0,0,1,289,267.76Zm-127.46,0h-66V267.76a32.65,32.65,0,0,1,32.61-32.62h.76a32.65,32.65,0,0,1,32.61,32.62Zm320.2,36.15H30.27V458.4H481.73Z"/><path d="M256,201.86a43.32,43.32,0,1,0-43.32-43.32A43.37,43.37,0,0,0,256,201.86Zm0-76.33a33,33,0,1,1-33,33A33.06,33.06,0,0,1,256,125.53Z"/><path d="M256,163.69h16.42a5.15,5.15,0,1,0,0-10.3H261.15V136a5.15,5.15,0,1,0-10.3,0v22.5A5.14,5.14,0,0,0,256,163.69Z"/></svg>