<?xml version="1.0" ?><!DOCTYPE svg  PUBLIC '-//W3C//DTD SVG 1.1//EN'  'http://www.w3.org/Graphics/SVG/1.1/DTD/svg11.dtd'><svg enable-background="new 0 0 24 24" height="24px" id="Layer_1" version="1.1" viewBox="0 0 24 24" width="24px" xml:space="preserve" xmlns="http://www.w3.org/2000/svg" xmlns:xlink="http://www.w3.org/1999/xlink"><g><path d="M23,5h-3V2h1c0.6,0,1-0.4,1-1s-0.4-1-1-1h-2H5H3C2.4,0,2,0.4,2,1s0.4,1,1,1h1v3H1C0.4,5,0,5.4,0,6v6c0,0.6,0.4,1,1,1h3   c0,3.3,2.7,6,6,6v2H9c-0.6,0-1,0.4-1,1v1c0,0.6,0.4,1,1,1h6c0.6,0,1-0.4,1-1v-1c0-0.6-0.4-1-1-1h-1v-2c3.3,0,6-2.7,6-6h3   c0.6,0,1-0.4,1-1V6C24,5.4,23.6,5,23,5z M4,12H1V6h3V12z M15,22v1H9v-1h2v-3h2v3H15z M18,13c0,2.2-1.8,4-4,4h-4c-2.2,0-4-1.8-4-4V2   h12V13z M23,12h-3V6h3V12z"/><polygon points="12,13 12.8,9.8 16,9 12.8,8.2 12,5 11.2,8.2 8,9 11.2,9.8  "/></g></svg>